<svg width="350" height="49" viewBox="0 0 350 49" fill="none" xmlns="http://www.w3.org/2000/svg">
<path d="M48.344 2.30401L39.56 36H29.624L24.248 13.824L18.68 36H8.74401L0.200012 2.30401H8.98401L13.832 26.832L19.832 2.30401H28.856L34.616 26.832L39.512 2.30401H48.344Z" fill="#282828"/>
<path d="M77.7084 22.176C77.7084 22.944 77.6604 23.744 77.5644 24.576H58.9884C59.1164 26.24 59.6444 27.52 60.5724 28.416C61.5324 29.28 62.7004 29.712 64.0764 29.712C66.1244 29.712 67.5484 28.848 68.3484 27.12H77.0844C76.6364 28.88 75.8204 30.464 74.6364 31.872C73.4844 33.28 72.0284 34.384 70.2684 35.184C68.5084 35.984 66.5404 36.384 64.3644 36.384C61.7404 36.384 59.4044 35.824 57.3564 34.704C55.3084 33.584 53.7084 31.984 52.5564 29.904C51.4044 27.824 50.8284 25.392 50.8284 22.608C50.8284 19.824 51.3884 17.392 52.5084 15.312C53.6604 13.232 55.2604 11.632 57.3084 10.512C59.3564 9.39201 61.7084 8.83201 64.3644 8.83201C66.9564 8.83201 69.2604 9.37601 71.2764 10.464C73.2924 11.552 74.8604 13.104 75.9804 15.12C77.1324 17.136 77.7084 19.488 77.7084 22.176ZM69.3084 20.016C69.3084 18.608 68.8284 17.488 67.8684 16.656C66.9084 15.824 65.7084 15.408 64.2684 15.408C62.8924 15.408 61.7244 15.808 60.7644 16.608C59.8364 17.408 59.2604 18.544 59.0364 20.016H69.3084Z" fill="#282828"/>
<path d="M92.9345 36.384C90.5985 36.384 88.5185 35.984 86.6945 35.184C84.8705 34.384 83.4305 33.296 82.3745 31.92C81.3185 30.512 80.7265 28.944 80.5985 27.216H88.7105C88.8065 28.144 89.2385 28.896 90.0065 29.472C90.7745 30.048 91.7185 30.336 92.8385 30.336C93.8625 30.336 94.6465 30.144 95.1905 29.76C95.7665 29.344 96.0545 28.816 96.0545 28.176C96.0545 27.408 95.6545 26.848 94.8545 26.496C94.0545 26.112 92.7585 25.696 90.9665 25.248C89.0465 24.8 87.4465 24.336 86.1665 23.856C84.8865 23.344 83.7825 22.56 82.8545 21.504C81.9265 20.416 81.4625 18.96 81.4625 17.136C81.4625 15.6 81.8785 14.208 82.7105 12.96C83.5745 11.68 84.8225 10.672 86.4545 9.93601C88.1185 9.20001 90.0865 8.83201 92.3585 8.83201C95.7185 8.83201 98.3585 9.66401 100.279 11.328C102.231 12.992 103.351 15.2 103.639 17.952H96.0545C95.9265 17.024 95.5105 16.288 94.8065 15.744C94.1345 15.2 93.2385 14.928 92.1185 14.928C91.1585 14.928 90.4225 15.12 89.9105 15.504C89.3985 15.856 89.1425 16.352 89.1425 16.992C89.1425 17.76 89.5425 18.336 90.3425 18.72C91.1745 19.104 92.4545 19.488 94.1825 19.872C96.1665 20.384 97.7825 20.896 99.0305 21.408C100.279 21.888 101.367 22.688 102.295 23.808C103.255 24.896 103.751 26.368 103.783 28.224C103.783 29.792 103.335 31.2 102.439 32.448C101.575 33.664 100.311 34.624 98.6465 35.328C97.0145 36.032 95.1105 36.384 92.9345 36.384Z" fill="#282828"/>
<path d="M117.012 0.480011V36H108.804V0.480011H117.012Z" fill="#282828"/>
<path d="M148.208 22.176C148.208 22.944 148.16 23.744 148.064 24.576H129.488C129.616 26.24 130.144 27.52 131.072 28.416C132.032 29.28 133.2 29.712 134.576 29.712C136.624 29.712 138.048 28.848 138.848 27.12H147.584C147.136 28.88 146.32 30.464 145.136 31.872C143.984 33.28 142.528 34.384 140.768 35.184C139.008 35.984 137.04 36.384 134.864 36.384C132.24 36.384 129.904 35.824 127.856 34.704C125.808 33.584 124.208 31.984 123.056 29.904C121.904 27.824 121.328 25.392 121.328 22.608C121.328 19.824 121.888 17.392 123.008 15.312C124.16 13.232 125.76 11.632 127.808 10.512C129.856 9.39201 132.208 8.83201 134.864 8.83201C137.456 8.83201 139.76 9.37601 141.776 10.464C143.792 11.552 145.36 13.104 146.48 15.12C147.632 17.136 148.208 19.488 148.208 22.176ZM139.808 20.016C139.808 18.608 139.328 17.488 138.368 16.656C137.408 15.824 136.208 15.408 134.768 15.408C133.392 15.408 132.224 15.808 131.264 16.608C130.336 17.408 129.76 18.544 129.536 20.016H139.808Z" fill="#282828"/>
<path d="M179.899 9.21601L163.099 48.72H154.267L160.411 35.088L149.515 9.21601H158.683L164.875 25.968L171.019 9.21601H179.899Z" fill="#282828"/>
<path d="M191.647 19.104C191.647 15.776 192.367 12.816 193.807 10.224C195.247 7.60001 197.247 5.56801 199.807 4.12801C202.399 2.65601 205.327 1.92001 208.591 1.92001C212.591 1.92001 216.015 2.97601 218.863 5.08801C221.711 7.20001 223.615 10.08 224.575 13.728H215.551C214.879 12.32 213.919 11.248 212.671 10.512C211.455 9.77601 210.063 9.40801 208.495 9.40801C205.967 9.40801 203.919 10.288 202.351 12.048C200.783 13.808 199.999 16.16 199.999 19.104C199.999 22.048 200.783 24.4 202.351 26.16C203.919 27.92 205.967 28.8 208.495 28.8C210.063 28.8 211.455 28.432 212.671 27.696C213.919 26.96 214.879 25.888 215.551 24.48H224.575C223.615 28.128 221.711 31.008 218.863 33.12C216.015 35.2 212.591 36.24 208.591 36.24C205.327 36.24 202.399 35.52 199.807 34.08C197.247 32.608 195.247 30.576 193.807 27.984C192.367 25.392 191.647 22.432 191.647 19.104Z" fill="#282828"/>
<path d="M227.969 22.56C227.969 19.808 228.481 17.392 229.505 15.312C230.561 13.232 231.985 11.632 233.777 10.512C235.569 9.39201 237.569 8.83201 239.777 8.83201C241.665 8.83201 243.313 9.21601 244.721 9.98401C246.161 10.752 247.265 11.76 248.033 13.008V9.21601H256.241V36H248.033V32.208C247.233 33.456 246.113 34.464 244.673 35.232C243.265 36 241.617 36.384 239.729 36.384C237.553 36.384 235.569 35.824 233.777 34.704C231.985 33.552 230.561 31.936 229.505 29.856C228.481 27.744 227.969 25.312 227.969 22.56ZM248.033 22.608C248.033 20.56 247.457 18.944 246.305 17.76C245.185 16.576 243.809 15.984 242.177 15.984C240.545 15.984 239.153 16.576 238.001 17.76C236.881 18.912 236.321 20.512 236.321 22.56C236.321 24.608 236.881 26.24 238.001 27.456C239.153 28.64 240.545 29.232 242.177 29.232C243.809 29.232 245.185 28.64 246.305 27.456C247.457 26.272 248.033 24.656 248.033 22.608Z" fill="#282828"/>
<path d="M270.387 13.68C271.347 12.208 272.547 11.056 273.987 10.224C275.427 9.36001 277.027 8.92801 278.787 8.92801V17.616H276.531C274.483 17.616 272.947 18.064 271.923 18.96C270.899 19.824 270.387 21.36 270.387 23.568V36H262.179V9.21601H270.387V13.68Z" fill="#282828"/>
<path d="M290.918 0.480011V36H282.71V0.480011H290.918Z" fill="#282828"/>
<path d="M309.059 36.384C306.435 36.384 304.067 35.824 301.955 34.704C299.875 33.584 298.227 31.984 297.011 29.904C295.827 27.824 295.235 25.392 295.235 22.608C295.235 19.856 295.843 17.44 297.059 15.36C298.275 13.248 299.939 11.632 302.051 10.512C304.163 9.39201 306.531 8.83201 309.155 8.83201C311.779 8.83201 314.147 9.39201 316.259 10.512C318.371 11.632 320.035 13.248 321.251 15.36C322.467 17.44 323.075 19.856 323.075 22.608C323.075 25.36 322.451 27.792 321.203 29.904C319.987 31.984 318.307 33.584 316.163 34.704C314.051 35.824 311.683 36.384 309.059 36.384ZM309.059 29.28C310.627 29.28 311.955 28.704 313.043 27.552C314.163 26.4 314.723 24.752 314.723 22.608C314.723 20.464 314.179 18.816 313.091 17.664C312.035 16.512 310.723 15.936 309.155 15.936C307.555 15.936 306.227 16.512 305.171 17.664C304.115 18.784 303.587 20.432 303.587 22.608C303.587 24.752 304.099 26.4 305.123 27.552C306.179 28.704 307.491 29.28 309.059 29.28Z" fill="#282828"/>
<path d="M338.325 36.384C335.989 36.384 333.909 35.984 332.085 35.184C330.261 34.384 328.821 33.296 327.765 31.92C326.709 30.512 326.117 28.944 325.989 27.216H334.101C334.197 28.144 334.629 28.896 335.397 29.472C336.165 30.048 337.109 30.336 338.229 30.336C339.253 30.336 340.037 30.144 340.581 29.76C341.157 29.344 341.445 28.816 341.445 28.176C341.445 27.408 341.045 26.848 340.245 26.496C339.445 26.112 338.149 25.696 336.357 25.248C334.437 24.8 332.837 24.336 331.557 23.856C330.277 23.344 329.173 22.56 328.245 21.504C327.317 20.416 326.853 18.96 326.853 17.136C326.853 15.6 327.269 14.208 328.101 12.96C328.965 11.68 330.213 10.672 331.845 9.93601C333.509 9.20001 335.477 8.83201 337.749 8.83201C341.109 8.83201 343.749 9.66401 345.669 11.328C347.621 12.992 348.741 15.2 349.029 17.952H341.445C341.317 17.024 340.901 16.288 340.197 15.744C339.525 15.2 338.629 14.928 337.509 14.928C336.549 14.928 335.813 15.12 335.301 15.504C334.789 15.856 334.533 16.352 334.533 16.992C334.533 17.76 334.933 18.336 335.733 18.72C336.565 19.104 337.845 19.488 339.573 19.872C341.557 20.384 343.173 20.896 344.421 21.408C345.669 21.888 346.757 22.688 347.685 23.808C348.645 24.896 349.141 26.368 349.173 28.224C349.173 29.792 348.725 31.2 347.829 32.448C346.965 33.664 345.701 34.624 344.037 35.328C342.405 36.032 340.501 36.384 338.325 36.384Z" fill="#282828"/>
</svg>
